<svg xmlns="http://www.w3.org/2000/svg" width="1080" height="1350" version="1.0" viewBox="0 0 810 1012.5"><defs><clipPath id="a"><path d="M.2 0h809.6v1012H.2Zm0 0"/></clipPath><clipPath id="b"><path d="M146.3 253H652v505H146.3Zm0 0"/></clipPath><clipPath id="c"><path d="M546 537h117.547v161H546Zm0 0"/></clipPath></defs><g clip-path="url(#a)"><path fill="#fff" d="M.2 0h809.6v1012H.2Zm0 0"/><path fill="#e6f0f0" d="M.2 0h809.6v1012H.2Zm0 0"/></g><g clip-path="url(#b)"><path fill="#e6503c" d="M398.605 697.867c-3.148 0-6.293-.074-9.437-.226a193.502 193.502 0 0 1-28.086-3.453 196.133 196.133 0 0 1-9.21-2.063 193.684 193.684 0 0 1-18.067-5.473 192.923 192.923 0 0 1-17.438-7.215 186.891 186.891 0 0 1-8.433-4.242 191.094 191.094 0 0 1-23.914-15.129 187.322 187.322 0 0 1-7.446-5.804 191.779 191.779 0 0 1-20.5-19.504 191.628 191.628 0 0 1-6.172-7.145 193.997 193.997 0 0 1-11.246-15.156 190.329 190.329 0 0 1-9.71-16.187 191.013 191.013 0 0 1-4.247-8.43 186.797 186.797 0 0 1-3.828-8.63 192.223 192.223 0 0 1-6.367-17.769 191.1 191.1 0 0 1-4.59-18.305 187.306 187.306 0 0 1-1.617-9.3 188.775 188.775 0 0 1-1.16-9.371c-.309-3.13-.543-6.27-.696-9.414-.156-3.14-.234-6.29-.234-9.434-.004-3.148.074-6.297.227-9.437.152-3.145.382-6.285.691-9.418a191.935 191.935 0 0 1 2.766-18.668c.613-3.09 1.3-6.16 2.066-9.211a188.21 188.21 0 0 1 2.516-9.102 190.868 190.868 0 0 1 6.351-17.773 188.612 188.612 0 0 1 3.824-8.63 188.98 188.98 0 0 1 4.243-8.433 188.627 188.627 0 0 1 4.648-8.215 194.37 194.37 0 0 1 5.05-7.976 189.058 189.058 0 0 1 5.434-7.719 191.03 191.03 0 0 1 11.97-14.594 195.58 195.58 0 0 1 6.507-6.84 191.888 191.888 0 0 1 6.836-6.507 188.06 188.06 0 0 1 7.148-6.168c2.43-2 4.91-3.934 7.438-5.813a194.437 194.437 0 0 1 15.691-10.488c2.7-1.617 5.438-3.168 8.215-4.652a188.91 188.91 0 0 1 8.43-4.246 190.593 190.593 0 0 1 17.437-7.227 190.82 190.82 0 0 1 18.059-5.484 195.9 195.9 0 0 1 9.21-2.07 192.768 192.768 0 0 1 18.673-2.77 189.606 189.606 0 0 1 18.851-.93c3.145 0 6.293.074 9.438.23a189.93 189.93 0 0 1 18.781 1.848c3.113.461 6.215.996 9.3 1.61a193.711 193.711 0 0 1 18.313 4.586c3.012.914 6 1.898 8.961 2.96a192.962 192.962 0 0 1 17.442 7.219 192.864 192.864 0 0 1 16.645 8.895 198.353 198.353 0 0 1 7.976 5.05 197.067 197.067 0 0 1 7.719 5.434 193.998 193.998 0 0 1 14.59 11.973 192.056 192.056 0 0 1 19.516 20.496c1.995 2.43 3.933 4.91 5.808 7.441a188.93 188.93 0 0 1 5.433 7.715 190.376 190.376 0 0 1 5.05 7.977 188.78 188.78 0 0 1 4.657 8.215 193.125 193.125 0 0 1 8.07 17.058 194.019 194.019 0 0 1 6.36 17.774c.91 3.011 1.75 6.043 2.515 9.097a191.935 191.935 0 0 1 4.84 27.879c.309 3.133.54 6.274.696 9.414.152 3.145.23 6.293.23 9.438a8.881 8.881 0 0 0 2.598 6.277c.414.41.863.777 1.347 1.102a8.883 8.883 0 0 0 3.2 1.328c.57.113 1.148.168 1.73.168h42.774c.582 0 1.16-.055 1.73-.168a8.843 8.843 0 0 0 3.2-1.328 9.116 9.116 0 0 0 1.347-1.102c.41-.414.777-.86 1.101-1.344a8.881 8.881 0 0 0 1.496-4.934 251.687 251.687 0 0 0-1.214-24.718 250.49 250.49 0 0 0-1.512-12.285 252.643 252.643 0 0 0-8.129-36.207 253.709 253.709 0 0 0-8.336-23.305 251.68 251.68 0 0 0-10.578-22.375 254.862 254.862 0 0 0-12.719-21.234 249.474 249.474 0 0 0-7.129-10.121 247.729 247.729 0 0 0-7.613-9.762 253.152 253.152 0 0 0-16.613-18.344 253.43 253.43 0 0 0-8.965-8.539 249.067 249.067 0 0 0-9.371-8.086 248.612 248.612 0 0 0-9.758-7.621 250.589 250.589 0 0 0-20.574-13.758 249.741 249.741 0 0 0-10.766-6.105 249.95 249.95 0 0 0-11.054-5.57 254.15 254.15 0 0 0-11.317-5.024 253.277 253.277 0 0 0-47.305-14.375 257.409 257.409 0 0 0-12.195-2.121 250.868 250.868 0 0 0-24.633-2.437 251.342 251.342 0 0 0-24.75-.016c-4.12.199-8.238.5-12.343.902-4.11.402-8.204.906-12.29 1.508a248.677 248.677 0 0 0-12.199 2.11 253.205 253.205 0 0 0-24.012 5.996 253.256 253.256 0 0 0-23.309 8.32 247.755 247.755 0 0 0-11.32 5.011 252.088 252.088 0 0 0-11.062 5.555 255.88 255.88 0 0 0-10.773 6.094 254.915 254.915 0 0 0-10.465 6.613 256.36 256.36 0 0 0-10.129 7.121 252.233 252.233 0 0 0-28.117 24.215 249.806 249.806 0 0 0-8.543 8.957 246.092 246.092 0 0 0-8.094 9.367 251.403 251.403 0 0 0-7.625 9.75 249.49 249.49 0 0 0-13.77 20.567 252.082 252.082 0 0 0-16.719 33.129 252.17 252.17 0 0 0-14.402 47.297 252.568 252.568 0 0 0-3.718 73.921 254.596 254.596 0 0 0 3.601 24.485c.801 4.05 1.7 8.078 2.7 12.082a251.976 251.976 0 0 0 7.152 23.695 254.056 254.056 0 0 0 9.441 22.879 258.856 258.856 0 0 0 5.551 11.066 254.06 254.06 0 0 0 12.695 21.246c2.29 3.434 4.66 6.813 7.118 10.13a252.781 252.781 0 0 0 15.672 19.156 253.34 253.34 0 0 0 17.476 17.527 252.163 252.163 0 0 0 39.668 29.512 245.213 245.213 0 0 0 10.762 6.117A252.083 252.083 0 0 0 302.12 738.5a259.867 259.867 0 0 0 11.543 4.473c3.883 1.394 7.8 2.695 11.746 3.902a253.203 253.203 0 0 0 36.192 8.191 249.93 249.93 0 0 0 12.285 1.536c4.105.41 8.222.722 12.343.933 4.122.207 8.247.317 12.375.324a8.873 8.873 0 0 0 3.395-.675 8.776 8.776 0 0 0 2.879-1.926 8.776 8.776 0 0 0 1.926-2.879 8.873 8.873 0 0 0 .676-3.395v-42.597a9.007 9.007 0 0 0-.774-3.29 8.886 8.886 0 0 0-6.414-5.07 9.078 9.078 0 0 0-1.688-.16Zm-8.875 42.598a233.916 233.916 0 0 1-11.332-.703 232.229 232.229 0 0 1-11.285-1.246 234.805 234.805 0 0 1-33.309-6.988 233.362 233.362 0 0 1-21.496-7.305 233.985 233.985 0 0 1-30.671-14.75 231.692 231.692 0 0 1-9.711-5.887 234.648 234.648 0 0 1-9.414-6.344 236.182 236.182 0 0 1-17.856-14.02 235.683 235.683 0 0 1-24.043-24.09 238.012 238.012 0 0 1-7.207-8.773 240.21 240.21 0 0 1-6.777-9.109 235.71 235.71 0 0 1-17.582-29.145 241.228 241.228 0 0 1-4.902-10.242 235.921 235.921 0 0 1-11.66-31.972 238.816 238.816 0 0 1-2.844-10.993 244.992 244.992 0 0 1-2.309-11.117c-.68-3.726-1.27-7.465-1.77-11.215a237.822 237.822 0 0 1-1.222-11.289 228.99 228.99 0 0 1-.68-11.332 234.2 234.2 0 0 1 1.25-34.015 234.772 234.772 0 0 1 9.266-44.39c1.125-3.614 2.34-7.2 3.64-10.755a237.634 237.634 0 0 1 4.157-10.566 238.66 238.66 0 0 1 4.664-10.352 234.366 234.366 0 0 1 5.156-10.117 241.02 241.02 0 0 1 5.637-9.855c1.96-3.239 3.996-6.43 6.11-9.57a233.947 233.947 0 0 1 13.566-18.2 232.115 232.115 0 0 1 7.425-8.59 235.774 235.774 0 0 1 24.64-23.48 236.123 236.123 0 0 1 18.203-13.566 237.417 237.417 0 0 1 19.427-11.747 234.22 234.22 0 0 1 20.469-9.816 233.18 233.18 0 0 1 10.562-4.16 243.285 243.285 0 0 1 10.754-3.641 236.285 236.285 0 0 1 21.973-5.707 235.68 235.68 0 0 1 11.168-2.05 237.19 237.19 0 0 1 11.253-1.509c3.762-.414 7.536-.734 11.313-.964a233.98 233.98 0 0 1 22.7-.285c3.784.136 7.562.363 11.335.68a235.654 235.654 0 0 1 33.617 5.305 233.525 233.525 0 0 1 21.836 6.215 234.188 234.188 0 0 1 21.133 8.29 236.481 236.481 0 0 1 10.242 4.896 235.933 235.933 0 0 1 29.14 17.586 232.996 232.996 0 0 1 17.884 13.984 231.938 231.938 0 0 1 8.414 7.622 235.682 235.682 0 0 1 8.035 8.019 228.552 228.552 0 0 1 7.64 8.402 232.182 232.182 0 0 1 7.227 8.758 234.872 234.872 0 0 1 13.14 18.512c2.04 3.187 4 6.426 5.887 9.707a236.463 236.463 0 0 1 14.75 30.672 235.025 235.025 0 0 1 3.91 10.66 238.33 238.33 0 0 1 3.395 10.836 236.29 236.29 0 0 1 5.195 22.098 231.5 231.5 0 0 1 1.79 11.21 233.33 233.33 0 0 1 1.25 11.286c.324 3.773.558 7.55.703 11.336h-25.739a210.672 210.672 0 0 0-1.824-20.11 214.362 214.362 0 0 0-1.64-9.965 207.384 207.384 0 0 0-2.118-9.875 211.152 211.152 0 0 0-5.644-19.386 210.038 210.038 0 0 0-16.746-36.696 210.503 210.503 0 0 0-17.016-25.035 208.28 208.28 0 0 0-6.457-7.765 208.414 208.414 0 0 0-21.5-21.313 211.025 211.025 0 0 0-7.82-6.387 210.319 210.319 0 0 0-25.188-16.793 213.86 213.86 0 0 0-8.902-4.77 213.726 213.726 0 0 0-9.121-4.331 213.071 213.071 0 0 0-9.32-3.887 207.016 207.016 0 0 0-9.497-3.433 208.468 208.468 0 0 0-19.437-5.477 208.302 208.302 0 0 0-19.871-3.582c-3.336-.434-6.684-.79-10.04-1.067a212.05 212.05 0 0 0-10.081-.582 207.22 207.22 0 0 0-10.098-.093 207.306 207.306 0 0 0-20.152 1.27 205.2 205.2 0 0 0-10.008 1.359 209.312 209.312 0 0 0-9.93 1.843 208.323 208.323 0 0 0-29.094 8.363 209.124 209.124 0 0 0-36.344 17.496 209.177 209.177 0 0 0-24.68 17.523 208.588 208.588 0 0 0-14.938 13.586 208.61 208.61 0 0 0-13.561 14.962 210.984 210.984 0 0 0-6.223 7.95 205.172 205.172 0 0 0-5.832 8.245 207.873 207.873 0 0 0-5.43 8.516 204.527 204.527 0 0 0-5.011 8.766 207.1 207.1 0 0 0-4.586 9 213.683 213.683 0 0 0-4.145 9.207 210.125 210.125 0 0 0-12.012 38.504 209.32 209.32 0 0 0-3.167 19.941 206.761 206.761 0 0 0-.864 10.062 208.748 208.748 0 0 0-.261 20.192c.117 3.363.316 6.723.597 10.078a209.283 209.283 0 0 0 10.203 49.332 210.085 210.085 0 0 0 7.352 18.805 216.221 216.221 0 0 0 4.348 9.113 206.999 206.999 0 0 0 4.785 8.895 206.348 206.348 0 0 0 10.82 17.046 207.89 207.89 0 0 0 12.41 15.926 208.431 208.431 0 0 0 6.77 7.496 205.142 205.142 0 0 0 7.121 7.16 212.073 212.073 0 0 0 7.457 6.809 208.074 208.074 0 0 0 7.777 6.441 206.211 206.211 0 0 0 8.079 6.059 210.586 210.586 0 0 0 25.855 15.75 209.294 209.294 0 0 0 18.383 8.352 214.823 214.823 0 0 0 9.469 3.504 208.528 208.528 0 0 0 9.632 3.039c3.235.937 6.489 1.796 9.762 2.574a208.443 208.443 0 0 0 19.848 3.722c3.336.461 6.68.84 10.031 1.141 3.355.297 6.715.516 10.078.652Zm0 0"/></g><path fill="#e6503c" d="M407.125 349.543v-13.844a8.787 8.787 0 0 0-1.2-2.625 8.697 8.697 0 0 0-1.976-2.097 8.801 8.801 0 0 0-5.387-1.824 8.807 8.807 0 0 0-5.39 1.824 8.774 8.774 0 0 0-1.977 2.097 8.885 8.885 0 0 0-1.199 2.625v13.844a8.908 8.908 0 0 0 3.176 4.723 8.858 8.858 0 0 0 5.39 1.824 8.858 8.858 0 0 0 7.363-3.926 8.81 8.81 0 0 0 1.2-2.621Zm-8.52 303.507a8.873 8.873 0 0 0-3.394.677c-.54.222-1.05.496-1.535.82a9.116 9.116 0 0 0-1.348 1.101c-.41.414-.777.864-1.101 1.348a8.832 8.832 0 0 0-1.324 3.2 8.873 8.873 0 0 0-.173 1.73v13.844a8.765 8.765 0 0 0 1.2 2.62 8.791 8.791 0 0 0 1.976 2.102 8.764 8.764 0 0 0 2.543 1.356 8.805 8.805 0 0 0 2.844.468c.977 0 1.926-.156 2.848-.468a8.764 8.764 0 0 0 2.543-1.356 8.791 8.791 0 0 0 1.976-2.101 8.863 8.863 0 0 0 1.2-2.621v-14.2a8.988 8.988 0 0 0-.707-3.152 8.957 8.957 0 0 0-.77-1.426 8.546 8.546 0 0 0-1.02-1.262 8.62 8.62 0 0 0-1.23-1.058 9.08 9.08 0 0 0-1.399-.817 9.24 9.24 0 0 0-1.527-.546 9.247 9.247 0 0 0-1.602-.258Zm155.926-138.62h13.754a8.947 8.947 0 0 0 2.684-1.168c.41-.27.797-.57 1.16-.903a8.68 8.68 0 0 0 .996-1.078c.3-.386.57-.797.805-1.226a8.976 8.976 0 0 0 .953-2.77c.082-.484.12-.973.12-1.46a8.755 8.755 0 0 0-.483-2.887 8.974 8.974 0 0 0-.59-1.348 9.084 9.084 0 0 0-.805-1.227 8.667 8.667 0 0 0-.996-1.078 9.233 9.233 0 0 0-1.16-.902 8.948 8.948 0 0 0-2.684-1.168h-13.754a9.586 9.586 0 0 0-.988-.192 9.64 9.64 0 0 0-1.004-.074 8.694 8.694 0 0 0-1.008.04 9.08 9.08 0 0 0-1.965.414 8.847 8.847 0 0 0-1.824.85 8.642 8.642 0 0 0-2.262 1.981c-.214.262-.41.536-.59.817a8.82 8.82 0 0 0-1.39 4.773c0 .336.02.668.055 1.004.039.332.097.664.172.992a8.685 8.685 0 0 0 .671 1.895c.149.3.313.594.493.879.18.285.375.554.59.816a8.753 8.753 0 0 0 3.148 2.457c.305.145.617.266.937.375a9.08 9.08 0 0 0 1.965.414c.336.032.672.047 1.008.04a9.64 9.64 0 0 0 1.004-.075c.332-.047.66-.11.988-.191Zm-325.785-17.746a8.455 8.455 0 0 0-1.39.472c-.45.196-.88.426-1.293.696-.41.27-.797.566-1.16.898a9.036 9.036 0 0 0-1.801 2.309 8.93 8.93 0 0 0-.59 1.343c-.16.465-.282.942-.36 1.426a8.71 8.71 0 0 0-.12 1.461 8.767 8.767 0 0 0 .48 2.887 8.885 8.885 0 0 0 2.39 3.652 8.95 8.95 0 0 0 2.453 1.598c.454.195.915.351 1.391.472h13.758c.324.082.652.145.988.188a8.619 8.619 0 0 0 2.008.039 8.601 8.601 0 0 0 1.969-.418 8.76 8.76 0 0 0 1.824-.848 8.647 8.647 0 0 0 1.582-1.238 8.14 8.14 0 0 0 .68-.742c.21-.262.406-.535.59-.817.18-.285.343-.578.492-.878a9.15 9.15 0 0 0 .668-1.895 8.718 8.718 0 0 0 0-3.996 8.731 8.731 0 0 0-1.75-3.59 9.35 9.35 0 0 0-1.434-1.41 9.203 9.203 0 0 0-.828-.574 8.759 8.759 0 0 0-2.797-1.11 8.513 8.513 0 0 0-.996-.152 7.816 7.816 0 0 0-1.004-.039 8.614 8.614 0 0 0-1.004.074 9.19 9.19 0 0 0-.988.188Zm104.364-54.313a8.835 8.835 0 0 0-1.782 2.809 8.796 8.796 0 0 0-.625 3.27 8.826 8.826 0 0 0 1.383 4.757c.3.473.64.914 1.023 1.32l59.196 57.153a8.157 8.157 0 0 0 2.144 1.57c.801.41 1.645.68 2.531.816a8.301 8.301 0 0 0 5.176-.879L528.793 450a8.807 8.807 0 0 0 1.902-.648 7.85 7.85 0 0 0 .883-.48c.285-.177.559-.368.824-.579.262-.207.516-.43.754-.668.235-.234.461-.484.672-.746a8.765 8.765 0 0 0 1.066-1.7c.149-.304.274-.613.387-.933a9.063 9.063 0 0 0 .492-2.96 9.552 9.552 0 0 0-.062-1.005 8.506 8.506 0 0 0-.176-.992 8.3 8.3 0 0 0-.289-.965 8.757 8.757 0 0 0-.39-.926c-.153-.3-.317-.59-.497-.875-.183-.28-.382-.55-.593-.812a8.691 8.691 0 0 0-1.442-1.399 8.642 8.642 0 0 0-.828-.57 8.8 8.8 0 0 0-2.797-1.098 7.797 7.797 0 0 0-.992-.148 8.69 8.69 0 0 0-1.008-.035 8.552 8.552 0 0 0-1 .078 9.2 9.2 0 0 0-.988.191 8.315 8.315 0 0 0-.961.305 8.024 8.024 0 0 0-.918.41 9.662 9.662 0 0 0-.867.508 8.98 8.98 0 0 0-.8.606l-121.052 60.613-54.843-53.246a8.808 8.808 0 0 0-1.36-.977 8.882 8.882 0 0 0-3.137-1.117 8.859 8.859 0 0 0-1.671-.094 8.742 8.742 0 0 0-3.247.742c-.511.227-1 .497-1.46.817a8.911 8.911 0 0 0-1.286 1.074Zm197.992 238.902h-69.664c41.265-36.566 65.492-75.347 64.43-104.367a37.416 37.416 0 0 0-1.216-9.086 37.278 37.278 0 0 0-3.382-8.523 36.445 36.445 0 0 0-2.45-3.883 37.317 37.317 0 0 0-9.906-9.48 58.957 58.957 0 0 0-4.266-2.442 59.082 59.082 0 0 0-9.066-3.785 58.682 58.682 0 0 0-4.738-1.312 58.764 58.764 0 0 0-9.723-1.422 58.41 58.41 0 0 0-9.824.211c-1.633.168-3.254.41-4.863.714a59.128 59.128 0 0 0-14.004 4.536 59.111 59.111 0 0 0-16.11 11.132c-.3.16-.593.332-.879.524a8.975 8.975 0 0 0-1.546 1.336c-.235.25-.45.515-.653.789a9.492 9.492 0 0 0-1.004 1.781 9.446 9.446 0 0 0-.343.965 9.737 9.737 0 0 0-.227 1 8.875 8.875 0 0 0-.113 1.016 8.948 8.948 0 0 0 .371 3.039 8.872 8.872 0 0 0 .812 1.875c.172.293.36.578.563.851.207.278.426.54.66.785.234.25.484.485.746.703.262.223.535.426.82.614a8.573 8.573 0 0 0 1.825.922 8.542 8.542 0 0 0 1.984.484c.34.04.68.063 1.023.063a8.747 8.747 0 0 0 3.96-.902c.306-.15.603-.317.892-.5.289-.188.562-.388.828-.602a9.081 9.081 0 0 0 1.422-1.47c.207-.273.398-.554.574-.847.977-.887 24.938-23.164 51.297-5.68a19.836 19.836 0 0 1 3.813 3.329 19.947 19.947 0 0 1 2.863 4.175 20.053 20.053 0 0 1 2.2 9.8c.886 22.364-22.364 63.63-76.235 105.52a8.811 8.811 0 0 0-2.574 4.355 8.73 8.73 0 0 0-.254 2.548c.035.86.195 1.7.48 2.512a8.82 8.82 0 0 0 2.953 4.11 8.7 8.7 0 0 0 2.227 1.257c.804.312 1.632.5 2.492.57h93.805a8.947 8.947 0 0 0 2.684-1.168c.41-.27.796-.57 1.16-.902a8.885 8.885 0 0 0 2.39-3.652 8.93 8.93 0 0 0 .363-1.422c.078-.485.121-.973.121-1.465 0-.488-.043-.977-.12-1.461a8.976 8.976 0 0 0-.954-2.77 9.084 9.084 0 0 0-.805-1.226 8.883 8.883 0 0 0-2.156-1.98 8.947 8.947 0 0 0-2.683-1.169Zm0 0"/><g clip-path="url(#c)"><path fill="#e6503c" d="M652.152 638.676h-11.629l-1.507-93.094a8.774 8.774 0 0 0-.614-2.484 9.013 9.013 0 0 0-1.293-2.207 8.904 8.904 0 0 0-1.87-1.743 8.726 8.726 0 0 0-2.294-1.136 8.75 8.75 0 0 0-2.52-.438 8.844 8.844 0 0 0-6.85 2.95l-75.79 101.078c-.21.324-.402.656-.574 1.003-.168.344-.316.7-.438 1.067a8.561 8.561 0 0 0-.296 1.117 8.654 8.654 0 0 0-.149 1.145c-.027.382-.027.77 0 1.152.024.387.074.766.149 1.144a8.753 8.753 0 0 0 .738 2.184 8.755 8.755 0 0 0 3 3.445c.32.22.652.41.996.586a8.965 8.965 0 0 0 2.176.754 9.38 9.38 0 0 0 1.144.16h68.867l.532 33.543a8.912 8.912 0 0 0 1.496 4.934c.324.484.691.93 1.101 1.344.414.41.864.78 1.348 1.101a8.883 8.883 0 0 0 3.2 1.328c.57.114 1.148.168 1.73.168.582 0 1.16-.054 1.73-.168a8.893 8.893 0 0 0 3.2-1.328 8.87 8.87 0 0 0 3.27-3.98 8.881 8.881 0 0 0 .675-3.399l-.535-33.277h11.007c.328.102.664.184 1.004.25.344.063.684.105 1.032.129a9.236 9.236 0 0 0 2.07-.102 9.24 9.24 0 0 0 1.988-.582 8.942 8.942 0 0 0 2.598-1.687 9.064 9.064 0 0 0 1.34-1.582 9 9 0 0 0 .934-1.852 9.16 9.16 0 0 0 .48-2.015 9.143 9.143 0 0 0 0-2.07 9.215 9.215 0 0 0-.48-2.016 9.758 9.758 0 0 0-.415-.953 9.691 9.691 0 0 0-.52-.895 9.248 9.248 0 0 0-.624-.832 9.201 9.201 0 0 0-1.512-1.414 8.977 8.977 0 0 0-1.8-1.027 9.674 9.674 0 0 0-.977-.348 9.22 9.22 0 0 0-2.043-.344 10.236 10.236 0 0 0-1.04.008 9.19 9.19 0 0 0-1.03.133 8.02 8.02 0 0 0-1.005.25Zm-79.87 0 50.405-67.625.622 67.625Zm0 0"/></g></svg>