<svg xmlns="http://www.w3.org/2000/svg" width="1080" height="1350" version="1.0" viewBox="0 0 810 1012.5"><defs><clipPath id="a"><path d="M.2 0h809.6v1012H.2Zm0 0"/></clipPath><clipPath id="b"><path d="M115.344 216.344h579.46v579.465h-579.46Zm0 0"/></clipPath></defs><g clip-path="url(#a)"><path fill="#fff" d="M.2 0h809.6v1012H.2Zm0 0"/><path fill="#e6f0f0" d="M.2 0h809.6v1012H.2Zm0 0"/></g><g clip-path="url(#b)"><path fill="#00c853" fill-rule="evenodd" d="M300.16 404.137c27.887-4.375 52.238-17.028 71.137-30.516h67.402c18.899 13.488 43.25 26.14 71.137 30.516 5.918.93 10.195 5.933 10.195 11.922v89.793c0 64.847-65.836 119.343-115.031 132.523-49.2-13.184-115.035-67.676-115.035-132.523v-89.793c0-5.989 4.281-10.993 10.195-11.922Zm-75.332 159.191c-3.418-9.11-12.207-15.59-22.512-15.59-13.277 0-24.039 10.762-24.039 24.04 0 13.277 10.762 24.038 24.04 24.038 10.304 0 19.093-6.484 22.511-15.59h73.129c-3.746-5.433-7.168-11.07-10.191-16.898ZM405 515.297c-7.742 0-14.02 6.273-14.02 14.015a14 14 0 0 0 5.57 11.188v12.133a8.45 8.45 0 0 0 8.45 8.449c4.664 0 8.445-3.785 8.445-8.45V540.5a13.986 13.986 0 0 0 5.57-11.188c0-7.742-6.273-14.015-14.015-14.015Zm-57.332 113.988a210.952 210.952 0 0 1-16.895-13.015v69.898c-9.109 3.422-15.593 12.207-15.593 22.512 0 13.277 10.761 24.043 24.039 24.043 13.277 0 24.043-10.766 24.043-24.043 0-10.301-6.485-19.09-15.594-22.512Zm123.11 103.434c13.277 0 24.038-10.762 24.038-24.04 0-10.304-6.484-19.093-15.593-22.511v-69.902a210.09 210.09 0 0 1-16.895 13.02v56.882c-9.11 3.418-15.594 12.207-15.594 22.512.004 13.277 10.766 24.039 24.043 24.039Zm41.261-152.496h73.129c3.422 9.109 12.207 15.593 22.512 15.593 13.277 0 24.039-10.761 24.039-24.039 0-13.277-10.762-24.043-24.04-24.043-10.3 0-19.09 6.485-22.511 15.594H522.23c-3.023 5.828-6.445 11.465-10.19 16.895ZM178.277 440.219c0-13.278 10.762-24.04 24.04-24.04 10.304 0 19.093 6.485 22.511 15.594h48.238v16.895h-48.238c-3.418 9.11-12.207 15.594-22.512 15.594-13.277 0-24.039-10.766-24.039-24.043Zm152.496-62.707c5.793-2.551 11.434-5.465 16.895-8.668v-43.012c9.11-3.422 15.594-12.21 15.594-22.512 0-13.277-10.766-24.043-24.043-24.043-13.278 0-24.04 10.766-24.04 24.043 0 10.301 6.485 19.09 15.594 22.512ZM115.343 506c0-13.277 10.762-24.043 24.04-24.043 10.304 0 19.094 6.484 22.512 15.594H273.07v8.3c0 2.887.11 5.75.325 8.594h-111.5c-3.422 9.11-12.208 15.594-22.512 15.594-13.278 0-24.04-10.762-24.04-24.039Zm355.434-226.723c-13.277 0-24.039 10.762-24.039 24.04 0 10.304 6.48 19.093 15.59 22.511v43.012a163.22 163.22 0 0 0 16.899 8.668v-51.68c9.105-3.418 15.59-12.207 15.59-22.512 0-13.277-10.762-24.039-24.04-24.039Zm66.153 152.496h48.238c3.422-9.109 12.207-15.593 22.512-15.593 13.277 0 24.039 10.761 24.039 24.039 0 13.277-10.762 24.043-24.04 24.043-10.3 0-19.09-6.485-22.511-15.594H536.93ZM405 216.343c13.277 0 24.04 10.762 24.04 24.04 0 10.304-6.485 19.094-15.595 22.512v93.828h-16.894v-93.828c-9.11-3.422-15.594-12.207-15.594-22.512 0-13.278 10.766-24.04 24.043-24.04ZM694.652 506c0-13.277-10.761-24.043-24.039-24.043-10.3 0-19.09 6.484-22.511 15.594H536.93v8.3c0 2.887-.114 5.75-.328 8.594h111.5c3.421 9.11 12.21 15.594 22.511 15.594 13.278 0 24.04-10.762 24.04-24.039ZM405 795.656c13.277 0 24.04-10.765 24.04-24.043 0-10.3-6.485-19.09-15.595-22.511v-95.567c-2.797.844-5.625 1.578-8.449 2.336-2.82-.758-5.648-1.492-8.445-2.336v95.567c-9.11 3.421-15.594 12.21-15.594 22.511 0 13.278 10.766 24.043 24.043 24.043Zm-44.441-313.488h-8.907a8.45 8.45 0 0 0-8.449 8.45v47.788c0 34.004 27.79 61.797 61.797 61.797 34 0 61.793-27.793 61.793-61.797v-47.789a8.447 8.447 0 0 0-8.45-8.449h-8.906v-25.934c0-24.457-19.98-44.437-44.437-44.437-24.46 0-44.441 19.98-44.441 44.437Zm71.984 0v-25.934c0-15.132-12.414-27.543-27.543-27.543-15.133 0-27.543 12.41-27.543 27.543v25.934Zm0 0"/></g></svg>