<svg xmlns="http://www.w3.org/2000/svg" width="1080" height="1350" version="1.0" viewBox="0 0 810 1012.5"><defs><clipPath id="a"><path d="M.2 0h809.6v1012H.2Zm0 0"/></clipPath><clipPath id="b"><path d="M228.64 222.691h353.075v566.72H228.64Zm0 0"/></clipPath></defs><g clip-path="url(#a)"><path fill="#fff" d="M.2 0h809.6v1012H.2Zm0 0"/><path fill="#e6f0f0" d="M.2 0h809.6v1012H.2Zm0 0"/></g><g clip-path="url(#b)"><path fill="#238cd2" d="M521.504 789.305H288.723c-32.953 0-59.754-26.95-59.754-60.075V282.754c0-33.121 26.8-60.063 59.754-60.063h232.78c32.813 0 59.517 26.942 59.517 60.063V729.23c0 33.125-26.704 60.075-59.516 60.075Zm-232.781-556.04c-27.121 0-49.184 22.2-49.184 49.489V729.23c0 27.293 22.063 49.5 49.184 49.5h232.78c26.981 0 48.938-22.207 48.938-49.5V282.754c0-27.29-21.957-49.488-48.937-49.488Zm0 0"/></g><path fill="#238cd2" d="M538.723 688.672H271.262c-15.114 0-27.399-12.496-27.399-27.856V307.207c0-15.36 12.285-27.855 27.399-27.855h267.46c15.11 0 27.4 12.492 27.4 27.855v353.61c0 15.359-12.286 27.855-27.4 27.855ZM271.262 289.926c-9.282 0-16.825 7.754-16.825 17.281v353.61c0 9.527 7.543 17.28 16.825 17.28h267.46c9.278 0 16.825-7.753 16.825-17.28v-353.61c0-9.527-7.547-17.281-16.824-17.281Zm192.273-17.871H450.73c-7.785 0-14.363-6.618-14.363-14.453 0-8.102 6.438-14.696 14.363-14.696h12.805c7.926 0 14.367 6.594 14.367 14.696 0 7.836-6.582 14.453-14.367 14.453ZM450.73 253.48c-2.015 0-3.789 1.926-3.789 4.122 0 2.027 1.813 3.878 3.79 3.878h12.808c1.977 0 3.79-1.851 3.79-3.878 0-2.196-1.778-4.122-3.79-4.122Zm-33.054 18.575h-71c-8.051 0-14.594-6.485-14.594-14.453 0-8.102 6.543-14.696 14.594-14.696h71c7.926 0 14.367 6.594 14.367 14.696 0 7.964-6.441 14.453-14.367 14.453Zm-71-18.575c-2.219 0-4.02 1.852-4.02 4.122 0 2.066 1.88 3.878 4.02 3.878h71c2.094 0 3.793-1.742 3.793-3.878 0-2.309-1.66-4.122-3.793-4.122Zm71.23 519.36h-25.828c-14.215 0-25.777-11.754-25.777-26.207v-26.098c0-14.328 11.562-25.98 25.777-25.98h25.828c14.352 0 26.016 11.652 26.016 25.98v26.098c0 14.453-11.664 26.207-26.016 26.207Zm-25.824-67.711c-8.242 0-15.203 7.055-15.203 15.406v26.098c0 8.617 6.82 15.637 15.203 15.637h25.824c8.508 0 15.446-7.02 15.446-15.637v-26.098c0-8.351-7.079-15.406-15.446-15.406Zm0 0"/><path fill="#238cd2" d="M415.117 755.914h-20.02c-6.632 0-12.034-5.426-12.034-12.101V723.59c0-6.676 5.402-12.102 12.035-12.102h20.02c6.64 0 12.042 5.426 12.042 12.102v20.222c0 6.676-5.398 12.102-12.043 12.102Zm-20.02-33.851c-.796 0-1.456.683-1.456 1.527v20.222c0 .844.66 1.528 1.457 1.528h20.02c.812 0 1.472-.684 1.472-1.528V723.59c0-.844-.66-1.528-1.473-1.528Zm79.153-262.387h-34.219a5.29 5.29 0 0 1-5.289-5.29v-33.148c0-7.879-3.18-15.613-8.71-21.203-11.134-11.223-30.72-11.223-41.829 0-5.539 5.59-8.723 13.324-8.723 21.203v33.149a5.29 5.29 0 0 1-5.285 5.289h-33.523c-2.914 0-5.985-2.367-5.985-5.29v-33.148c0-20.05 7.735-38.906 21.77-53.097 14.074-14.2 32.777-22.02 52.656-22.02 19.336 0 38.114 7.742 51.68 21.281.355.211.684.457.95.739 14.062 14.187 21.796 33.046 21.796 53.097v33.149a5.288 5.288 0 0 1-5.289 5.289Zm-28.934-10.574h23.645v-27.864c0-16.914-6.39-32.824-18.027-44.933a4.962 4.962 0 0 1-.965-.754c-11.637-11.98-27.992-18.852-44.856-18.852-17.039 0-33.066 6.707-45.136 18.883-12.059 12.2-18.715 28.414-18.715 45.656v27.864h23.644v-27.864c0-10.648 4.29-21.09 11.766-28.644 15.066-15.235 41.765-15.262 56.867 0 7.492 7.554 11.777 17.996 11.777 28.644Zm0 0"/><path fill="#238cd2" d="M458.883 621.898H351.102c-25.762 0-46.72-21.14-46.72-47.132v-93.34c0-17.824 14.477-32.324 32.294-32.324h136.879c17.672 0 32.05 14.5 32.05 32.324v93.34c0 25.992-20.96 47.132-46.722 47.132ZM336.672 459.676c-11.969 0-21.719 9.754-21.719 21.75v93.34c0 20.16 16.219 36.558 36.149 36.558h107.78c19.93 0 36.15-16.398 36.15-36.558v-93.34c0-11.996-9.637-21.75-21.477-21.75Zm0 0"/><path fill="#238cd2" d="M413.95 585.46h-17.688c-3.614 0-7.04-1.495-9.367-4.105-2.23-2.507-3.258-5.726-2.88-9.074a1665.23 1665.23 0 0 1 2.305-20.61l1.094-9.702c-8.219-5.926-13.2-15.41-13.2-25.512 0-17.172 13.86-31.144 30.9-31.144 16.898 0 30.656 13.972 30.656 31.144 0 10.336-4.817 19.602-13.047 25.45l.191 1.28c.707 6.211 1.379 12.868 2.156 20.438l.899 8.719c.379 3.289-.649 6.636-2.852 9.113-2.27 2.547-5.605 4.004-9.168 4.004Zm-8.837-89.573c-11.207 0-20.324 9.23-20.324 20.57 0 7.461 4.145 14.438 10.813 18.2a5.289 5.289 0 0 1 2.664 5.136l-1.43 13.102a1396.503 1396.503 0 0 0-2.297 20.535c.582 1.242 1.117 1.457 1.723 1.457h17.687c.547 0 .992-.164 1.258-.461l-.66-9.73c-.762-7.52-1.445-14.137-2.129-20.13l-.672-4.52a5.298 5.298 0 0 1 2.684-5.417c6.75-3.692 10.765-10.488 10.765-18.168 0-11.152-9.203-20.574-20.082-20.574Zm0 0"/></svg>