<svg xmlns="http://www.w3.org/2000/svg" width="1080" height="1350" version="1.0" viewBox="0 0 810 1012.5"><defs><clipPath id="a"><path d="M.2 0h809.6v1012H.2Zm0 0"/></clipPath><clipPath id="b"><path d="M163.25 239h483.512v534H163.25Zm0 0"/></clipPath></defs><g clip-path="url(#a)"><path fill="#fff" d="M.2 0h809.6v1012H.2Zm0 0"/><path fill="#e6f0f0" d="M.2 0h809.6v1012H.2Zm0 0"/></g><g clip-path="url(#b)"><path fill="#4b9664" d="M636.125 328.879h-33.063v-33.063c0-5.859-4.746-10.605-10.605-10.605h-33.059v-35.559c0-5.855-4.75-10.605-10.605-10.605h-244.09c-.023 0-.047.004-.07.004-.13 0-.262.004-.395.008-.039.004-.082.004-.12.007-.153.008-.302.02-.45.036a2.882 2.882 0 0 0-.191.02c-.086.01-.172.019-.254.03a4.63 4.63 0 0 0-.246.04c-.055.007-.11.019-.164.027a9.48 9.48 0 0 0-.579.12l-.046.013c-.11.027-.223.054-.329.085-.023.004-.046.012-.07.02a9.72 9.72 0 0 0-1 .34l-.059.023c-.101.04-.203.082-.304.13a9.72 9.72 0 0 0-.941.469c-.06.034-.114.065-.172.1-.07.04-.137.079-.204.122-.07.043-.14.09-.21.136a1.88 1.88 0 0 0-.16.106c-.118.078-.235.164-.352.246l-.117.09-.25.199-.13.105c-.081.067-.163.141-.245.211-.036.032-.07.063-.102.094a.389.389 0 0 0-.043.04L166.648 362.933c-.218.199-.421.41-.62.625-.028.03-.06.062-.087.093-.074.086-.152.172-.222.258l-.094.117c-.074.09-.14.176-.21.266-.028.035-.056.074-.083.11-.09.12-.176.242-.262.363-.03.046-.058.093-.09.14-.05.078-.101.156-.152.239l-.117.199c-.035.058-.07.117-.102.176a4.67 4.67 0 0 0-.132.238c-.02.035-.036.07-.055.11-.16.308-.3.624-.434.952-.008.02-.015.035-.02.055-.179.457-.323.93-.44 1.418l-.024.102a5.776 5.776 0 0 0-.066.308 1.67 1.67 0 0 1-.028.149c-.023.14-.047.277-.066.418l-.035.289c-.004.062-.012.12-.016.183a7.78 7.78 0 0 0-.027.34 10.637 10.637 0 0 0-.02.629v391.628c0 5.856 4.75 10.606 10.606 10.606h239.714c5.856 0 10.606-4.75 10.606-10.605 0-5.856-4.75-10.606-10.606-10.606H184.453v-370.41H304.7c5.86 0 10.606-4.746 10.606-10.605v-110.46h222.882v237.531c0 5.856 4.75 10.606 10.606 10.606 5.855 0 10.605-4.75 10.605-10.606V306.422h22.457v213.527c0 5.856 4.75 10.606 10.606 10.606 5.855 0 10.605-4.75 10.605-10.606V350.086h22.457V566.16c0 5.856 4.747 10.606 10.606 10.606 5.855 0 10.601-4.75 10.601-10.606V339.48c0-5.855-4.746-10.601-10.605-10.601Zm-342.027 31.238h-93.172l93.172-86.203Zm0 0"/></g><path fill="#4b9664" d="M601.926 555.008c-11.719-11.723-25.375-20.926-40.578-27.356-15.746-6.664-32.465-10.039-49.696-10.039-17.23 0-33.953 3.375-49.699 10.04-15.203 6.429-28.855 15.632-40.578 27.355-11.719 11.719-20.922 25.375-27.355 40.578-6.66 15.746-10.04 32.465-10.04 49.695 0 17.23 3.38 33.953 10.04 49.7 6.433 15.203 15.636 28.855 27.355 40.578 11.723 11.718 25.375 20.921 40.578 27.355 15.746 6.66 32.469 10.04 49.7 10.04 17.23 0 33.949-3.38 49.695-10.04 15.203-6.434 28.855-15.637 40.578-27.355 11.722-11.723 20.926-25.375 27.355-40.579 6.66-15.746 10.04-32.468 10.04-49.699 0-17.23-3.38-33.949-10.04-49.695-6.43-15.203-15.633-28.86-27.355-40.578Zm7.824 131.71c-5.363 12.677-13.04 24.06-22.82 33.84-9.782 9.782-21.168 17.458-33.844 22.82-13.117 5.548-27.059 8.36-41.434 8.36-14.375 0-28.316-2.812-41.433-8.36-12.676-5.362-24.063-13.038-33.844-22.82-9.777-9.78-17.457-21.163-22.816-33.84-5.551-13.12-8.364-27.062-8.364-41.437 0-14.375 2.813-28.316 8.364-41.433 5.359-12.676 13.039-24.063 22.816-33.844 9.781-9.777 21.168-17.457 33.844-22.817 13.117-5.55 27.058-8.363 41.433-8.363s28.317 2.813 41.434 8.364c12.676 5.359 24.062 13.039 33.844 22.816 9.78 9.781 17.457 21.168 22.82 33.844 5.547 13.117 8.36 27.058 8.36 41.433s-2.813 28.317-8.36 41.438ZM356.441 331.82H483.43c5.855 0 10.605-4.746 10.605-10.605 0-5.856-4.75-10.602-10.605-10.602H356.44c-5.855 0-10.605 4.746-10.605 10.602 0 5.86 4.75 10.605 10.605 10.605Zm0 60.535H483.43c5.855 0 10.605-4.75 10.605-10.605s-4.75-10.605-10.605-10.605H356.44c-5.855 0-10.605 4.75-10.605 10.605s4.75 10.605 10.605 10.605Zm-125.651 49.93c0 5.856 4.75 10.602 10.605 10.602H483.43c5.855 0 10.605-4.746 10.605-10.602 0-5.86-4.75-10.605-10.605-10.605H241.395c-5.856 0-10.606 4.746-10.606 10.605Zm10.605 71.137h213.34c5.859 0 10.605-4.75 10.605-10.606 0-5.855-4.746-10.605-10.606-10.605h-213.34c-5.855 0-10.605 4.75-10.605 10.605 0 5.856 4.75 10.606 10.606 10.606Zm149.46 49.93c0-5.856-4.746-10.606-10.601-10.606h-138.86c-5.855 0-10.605 4.75-10.605 10.606 0 5.855 4.75 10.605 10.606 10.605h138.859c5.855 0 10.601-4.75 10.601-10.605Zm-149.46 71.136h116.53c5.86 0 10.606-4.746 10.606-10.605 0-5.856-4.746-10.606-10.605-10.606H241.395c-5.856 0-10.606 4.75-10.606 10.606 0 5.86 4.75 10.605 10.606 10.605Zm0 60.535H362.41c5.86 0 10.606-4.75 10.606-10.605 0-5.86-4.746-10.606-10.606-10.606H241.395c-5.856 0-10.606 4.747-10.606 10.606 0 5.855 4.75 10.605 10.606 10.605Zm0 0"/><path fill="#4b9664" d="m485.594 672.695-34.2-34.199-20.996 20.996 55.196 55.192L588.457 611.82l-20.996-20.996Zm0 0"/></svg>