<svg xmlns="http://www.w3.org/2000/svg" width="1080" height="1350" version="1.0" viewBox="0 0 810 1012.5"><defs><clipPath id="a"><path d="M.2 0h809.6v1012H.2Zm0 0"/></clipPath><clipPath id="b"><path d="M114.719 215.719h580.21v580.21H114.72Zm0 0"/></clipPath></defs><g clip-path="url(#a)"><path fill="#fff" d="M.2 0h809.6v1012H.2Zm0 0"/><path fill="#e6f0f0" d="M.2 0h809.6v1012H.2Zm0 0"/></g><path fill="#00c853" d="m239.828 326.895-3.48-3.48 10.156-10.161 3.484 3.48Zm10.16 10.062 10.16-10.156 10.16-10.16-3.484-3.485-20.32 20.32-10.156 10.16 3.48 3.481Zm50.512-50.605 10.156-10.16-3.48-3.481-20.32 20.32 3.484 3.48ZM189.223 417.949l10.16-10.16-3.485-3.484-20.32 20.32 3.484 3.484Zm60.765-60.765 30.48-30.48-3.484-3.485-10.351 10.258-30.285 30.285 3.48 3.484Zm50.512-50.512 10.156-10.16-3.48-3.48-10.16 10.156-10.16 10.16 3.484 3.484Zm30.383-30.383-3.485-3.484-10.16 10.16 3.578 3.387Zm-141.66 161.883 30.382-30.383-3.484-3.484-10.156 10.16-30.48 30.48 3.48 3.48Zm60.765-60.766 60.961-60.96 9.867-9.774 10.16-10.16 10.063-10.16 10.16-10.16-3.48-3.481-20.32 20.32-10.16 10.156-40.641 40.641-9.965 9.871-30.383 30.383 3.484 3.484Zm-50.605 70.828 81.281-81.28 10.156-10.161 10.16-10.156 30.48-30.48 9.58-9.485 10.16-10.16 10.066-10.16-3.485-3.48-10.16 10.16-10.16 10.156-50.8 50.8-9.868 9.774-60.961 60.96-10.16 10.157-30.48 30.48 3.484 3.485 10.547-10.45Zm20.222 0 132.079-132.078 9.582-9.484-3.485-3.485-50.8 50.801-9.965 9.774-91.344 91.343-10.16 10.157-9.774 9.773 3.485 3.485 20.32-20.32Zm10.16 10.16 81.282-81.28 10.156-10.16 10.16-10.161 10.16-10.156 30.48-30.48-3.483-3.485-10.16 10.16-10.157 10.16-20.32 20.32-10.645 10.45-111.273 111.273 3.48 3.485 10.16-10.16Zm20.223 0 142.239-142.238-3.485-3.484-10.836 10.644-161.879 161.88 3.48 3.484 20.321-20.32Zm20.223 0 101.601-101.601 10.16-10.156 10.157-10.16 20.32-20.32-3.48-3.485-20.32 20.32-10.743 10.547L236.25 485.195l3.484 3.485 10.157-10.16 10.16-10.16ZM452.316 276.29l-3.484-3.484-10.16 10.16 3.484 3.484ZM290.434 458.395l101.601-101.602 10.16-10.156 10.16-10.16 10.157-10.16 10.16-10.16-3.48-3.485-40.641 40.64-10.645 10.45-50.8 50.8-10.157 10.16-10.16 10.157-50.316 50.316 3.484 3.485 10.16-10.16 10.156-10.16Zm161.882-161.883-3.484-3.48-10.16 10.156 3.484 3.484Zm-33.867 47.027-10.16 10.16-10.16 10.063-71.024 71.023-10.156 10.16-10.16 10.16-10.16 10.157-19.934 19.933 3.485 3.485 20.32-20.32 10.156-10.16 30.48-30.481 10.16-10.156 91.442-91.442 10.157-10.16 9.484-9.29-3.484-3.483-30.48 30.48ZM300.5 488.777l10.156-10.16 91.442-91.441 10.16-10.156 30.48-30.48 10.157-10.161 10.16-10.16-3.48-3.485-30.481 30.48-10.645 10.548-101.5 101.5-9.87 9.773-10.161 10.16-10.063 10.16-10.16 10.16L280.18 509l10.16-10.16Zm20.316 0 101.602-101.601 10.16-10.156 10.16-10.16 10.157-10.16 20.32-20.321-3.48-3.484-20.32 20.32-10.743 10.547-40.64 40.64-10.157 10.16-9.969 9.965-91.148 91.149 3.484 3.484 20.32-20.32Zm20.223 0 101.602-101.601 10.16-10.156 30.48-30.48-3.484-3.485-10.16 10.16-10.742 10.547-30.48 30.48-10.157 10.16-20.32 20.32-10.16 10.157-50.317 50.316-10.063 10.16-20.32 20.32 3.485 3.485 20.32-20.32Zm10.066 10.063 20.32-20.32 10.157-10.16 40.64-40.641 9.872-9.77 40.64-40.64 10.157-10.16 20.32-20.32-3.48-3.485-10.547 10.355-10.067 10.063-10.16 10.16-10.156 10.16-40.64 40.64L408 434.88l-50.316 50.316-10.063 10.16-20.32 20.32 3.484 3.485Zm138.079-124.918-50.801 50.8-10.16 10.157-50.317 50.316-10.062 10.16-30.48 30.48 3.484 3.485 60.96-60.96 10.157-10.16 30.48-30.481 10.16-10.156 60.961-60.961-3.484-3.485-10.742 10.645Zm-127.918 155.3 10.16-10.16 10.156-10.16 50.8-50.8 10.161-10.157 71.121-71.12 10.156-10.16-3.48-3.485-10.84 10.742-10.16 10.16-10.156 10.063-60.961 60.96-10.16 10.157-19.934 19.933-10.063 10.16-10.16 10.063-40.64 40.64 3.484 3.485 10.16-10.16Zm10.062 10.063 30.48-30.48 10.157-10.16 10.16-10.16 10.16-10.157 101.602-101.601-3.485-3.485-31.062 31.063-10.156 10.062-50.801 50.801-9.871 9.867-10.16 10.16-10.063 10.16-20.32 20.32-10.063 9.966-30.48 30.48 3.484 3.484 10.16-10.16Zm148.238-134.98L509.5 414.367l-10.16 10.16-10.156 10.063-30.48 30.48-9.97 9.965-10.16 10.16-10.062 10.16-30.48 30.48-10.157 10.161-9.969 9.871-10.16 10.156-10.16 10.16 3.484 3.485 40.64-40.64 10.161-10.157 20.32-20.32 10.157-10.16 111.761-111.762-3.484-3.48-20.32 20.32Zm20.223 0-20.32 20.32-9.969 9.965-10.16 10.16-10.156 10.063-10.16 10.16-10.067 10.062-10.156 10.16-10.067 10.16-20.32 20.32-10.156 10.16-30.48 30.481-9.872 9.774-20.32 20.32 3.484 3.48 30.48-30.48 10.16-10.156 30.481-30.48 10.157-10.16 91.441-91.442 10.16-10.156 30.48-30.48-3.484-3.485-20.32 20.32Zm20.223 0-40.64 40.64-9.872 9.868-10.16 10.16-10.156 10.062-10.16 10.16-10.067 10.16-10.156 10.16-80.895 80.895-10.16 10.156-10.062 10.067 3.484 3.48 20.32-20.32 10.16-10.156 10.16-10.16 10.157-10.16 111.762-111.762 10.16-10.157 10.16-10.16 10.156-10.16 30.48-30.48-3.48-3.485ZM381.488 610.113l223.516-223.515-3.484-3.485-10.16 10.16-10.157 10.16-60.96 60.962-10.743 10.64-10.16 10.16-10.156 10.16-121.438 121.438-10.16 10.156 3.484 3.485 10.16-10.16Zm208.907-195.746-50.801 50.801-9.871 9.867-10.157 10.16-10.066 10.16-10.16 10.16-10.156 10.063-111.278 111.277 3.485 3.48 10.16-10.16 10.16-10.155 30.48-30.48 10.157-10.161 91.441-91.442 10.16-10.156 40.64-40.64 10.157-10.16 20.32-20.32-3.48-3.485Zm10.16 10.16-40.64 40.641-9.966 9.867-10.16 10.16-10.066 10.16-10.157 10.16-10.066 10.063-10.16 10.16-10.156 10.063-60.961 60.96-9.774 9.872-10.16 10.16-10.16 10.156-10.16 10.16 3.484 3.485 50.8-50.801 10.161-10.156 20.32-20.32 10.157-10.16 101.601-101.602 10.16-10.157 20.32-20.32 10.157-10.16-3.48-3.484Zm10.062 10.063-50.605 50.605-10.063 10.16-30.48 30.48-9.969 9.966-10.16 10.16-10.156 10.062-40.641 40.641-9.871 9.969-10.16 10.16-10.16 10.156-20.32 20.32 3.484 3.485 60.96-60.961 10.16-10.156 30.481-30.48 10.156-10.16 91.442-91.442 10.16-10.157 20.32-20.32-3.484-3.484-10.934 10.933Zm10.16 10.16-20.32 20.32-10.062 9.965-10.16 10.16-10.063 10.16-50.8 50.801-9.872 9.867-10.16 10.16-10.156 10.067-10.16 10.16-10.16 10.156-9.97 10.067-10.16 10.16-10.16 10.156-10.16 10.16-10.156 10.16-10.16 10.16 3.48 3.485 10.16-10.16 10.356-10.258 20.32-20.32 10.16-10.156 10.16-10.16 10.157-10.16 131.597-131.598 10.16-10.157 10.16-10.16-3.484-3.484Zm0 20.223-10.16 10.062-10.16 10.16-10.062 10.16-91.055 91.055-10.156 10.063-10.067 10.16-91.437 91.437-9.774 9.676-10.062 10.16 3.484 3.485 30.48-30.48 10.157-10.161 71.12-71.121 10.161-10.156 50.8-50.801 10.157-10.16 71.121-71.121 10.16-10.157L632 453.75Zm-10.16 30.382L499.34 606.633l-10.156 10.062-30.48 30.48-10.161 10.157-50.8 50.8-9.677 9.774-10.16 10.063 3.485 3.484 50.8-50.8 10.157-10.16 20.32-20.321 10.16-10.156L584.59 528.254l10.156-10.16 20.32-20.32 10.16-10.157-3.484-3.484Zm-30.383 50.512-10.16 10.156-40.64 40.641-9.868 9.969-10.066 10.062-10.16 10.16-10.156 10.063-40.641 40.64-10.16 10.157-20.32 20.32-9.774 9.871-10.16 10.16 3.484 3.485 71.121-71.121 10.157-10.16 40.64-40.641 10.16-10.156 60.961-60.961-3.484-3.485Zm0 20.223-20.32 20.32-10.16 10.156-9.965 10.067-10.16 10.16-10.16 10.156-20.13 20.13-10.155 10.062-50.801 50.8-9.871 9.965-20.32 20.32 3.484 3.485 91.441-91.441 10.156-10.16 30.48-30.481 10.161-10.156 40.64-40.641-3.484-3.484ZM479.117 687.523l-10.16 10.16-10.156 10.16-10.067 10.063-20.32 20.32-10.156 10.16 3.48 3.485 71.121-71.121-3.484-3.484Zm40.45-40.445 3.48 3.485 10.16-10.16-3.484-3.485Zm60.667-60.668-10.16 10.156-10.062 10.067-10.16 10.16-10.16 10.156 3.484 3.485 10.16-10.16 10.156-10.16 20.32-20.321 10.16-10.156-3.48-3.485ZM438.672 748.191l-10.16 10.16 3.484 3.485 20.32-20.32-3.484-3.485Zm40.445-40.445-10.16 10.16 3.484 3.485 20.32-20.32-3.484-3.485Zm91.055-91.05 3.48 3.48 10.16-10.156-3.48-3.485Zm0 0"/><g clip-path="url(#b)"><path fill="#238cd2" d="M477.86 508.805v-15.868c0-20.996-17.126-38.125-38.122-38.125h-16.836c-21 0-38.125 17.13-38.125 38.125v15.868c-7.449 1.742-12.964 8.418-12.964 16.355v54.477c0 9.289 7.546 16.738 16.738 16.738h85.441c9.29 0 16.738-7.547 16.738-16.738V525.16c.098-7.937-5.418-14.613-12.87-16.355Zm-38.801 47.8v16.645a7.803 7.803 0 0 1-7.836 7.836 7.806 7.806 0 0 1-7.84-7.836v-16.742c-5.031-2.805-8.418-8.125-8.418-14.223 0-9 7.258-16.254 16.258-16.254s16.254 7.254 16.254 16.254c.097 6.192-3.29 11.516-8.418 14.32Zm26.32-48.187h-68.121v-15.48c0-14.13 11.515-25.641 25.644-25.641h16.836c14.125 0 25.64 11.512 25.64 25.64Zm-114.758-77.7h23.414v10.356h-36.863V385.34h13.45Zm72.184 3.485c-2.032 2.324-5.13 4.16-9.098 5.516-3.965 1.453-8.32 2.129-13.062 2.129-7.258 0-13.16-2.227-17.512-6.676-4.356-4.453-6.676-10.645-6.969-18.676v-4.84c0-5.511.969-10.254 2.902-14.414 1.938-4.066 4.743-7.258 8.325-9.484 3.578-2.227 7.836-3.29 12.578-3.29 6.965 0 12.386 1.548 16.16 4.743 3.867 3.191 6.094 7.934 6.676 14.223H409.84c-.485-3.098-1.453-5.32-3-6.676-1.55-1.356-3.68-2.031-6.485-2.031-3.386 0-6 1.449-7.835 4.257-1.84 2.903-2.81 6.965-2.81 12.286v3.386c0 5.614.97 9.774 2.81 12.582 1.933 2.805 4.933 4.16 8.996 4.16 3.484 0 6.097-.773 7.84-2.324v-8.61h-9.387v-9.194h22.836Zm21.285-12.094v18.965h-13.45V385.34h22.255c4.257 0 8.03.773 11.324 2.32 3.289 1.55 5.804 3.774 7.644 6.68 1.836 2.902 2.707 6.191 2.707 9.867 0 5.418-1.933 9.773-5.804 13.063-3.871 3.289-9.192 4.84-16.063 4.84Zm0-10.355h8.805c2.613 0 4.55-.676 6-1.934 1.355-1.257 2.03-3.097 2.03-5.515 0-2.614-.675-4.645-2.124-6.29-1.453-1.55-3.293-2.324-5.711-2.417h-9Zm37.64 29.32V385.34h18c4.934 0 9.383 1.16 13.254 3.387 3.97 2.226 6.97 5.418 9.192 9.48 2.226 4.066 3.293 8.613 3.386 13.742v2.613c0 5.125-1.062 9.676-3.19 13.739-2.13 4.062-5.227 7.258-9.099 9.484-3.964 2.32-8.32 3.48-13.156 3.48H481.73Zm13.45-45.383v35.028h4.644c3.871 0 6.774-1.352 8.903-4.16 2.128-2.805 3.097-6.872 3.097-12.192v-2.418c0-5.418-1.066-9.484-3.097-12.191-2.032-2.711-5.13-4.067-8.997-4.067ZM405 796.281c-77.504 0-150.465-30.187-205.23-85.05-54.864-54.766-85.051-127.727-85.051-205.231 0-77.504 30.187-150.465 85.05-205.23 54.766-54.864 127.727-85.051 205.231-85.051 77.504 0 150.465 30.187 205.23 85.05 54.864 54.864 85.051 127.727 85.051 205.231 0 77.504-30.187 150.465-85.05 205.23-54.766 54.864-127.727 85.051-205.231 85.051Zm0-564.984c-151.527 0-274.703 123.176-274.703 274.703S253.473 780.703 405 780.703 679.703 657.527 679.703 506 556.527 231.297 405 231.297Zm0 0"/></g></svg>