<svg xmlns="http://www.w3.org/2000/svg" width="1080" height="1350" version="1.0" viewBox="0 0 810 1012.5"><defs><clipPath id="a"><path d="M.2 0h809.6v1012H.2Zm0 0"/></clipPath><clipPath id="b"><path d="M126.04 333.047H288V496H126.04Zm0 0"/></clipPath><clipPath id="c"><path d="M324 333.047h162V491H324Zm0 0"/></clipPath><clipPath id="d"><path d="M522 333.047h161.766V496H522Zm0 0"/></clipPath></defs><g clip-path="url(#a)"><path fill="#fff" d="M.2 0h809.6v1012H.2Zm0 0"/><path fill="#e6f0f0" d="M.2 0h809.6v1012H.2Zm0 0"/></g><path fill="#00c853" d="m574.172 520.676-3.606-5.914c-3.425-5.637-9.586-9.008-16.472-9.008-3.211 0-6.453.77-9.36 2.21-1.422.712-3.644 1.657-6.347 1.657-2.559 0-5-.816-7.469-2.516-3.484-2.367-7.059-3.53-10.883-3.53-.855 0-1.726.058-2.613.175-4.14.523-7.95 2.383-12.7 6.176l-5.085 4.05-5.098-4.007c-5.23-4.098-10.129-6.09-14.996-6.09-4.676 0-9.441 1.816-14.586 5.55l-7.336 5.348-4.578-7.832c-2.195-3.777-4.36-7.523-6.508-11.246-4.91-8.5-9.562-16.531-14.441-24.64-3.766-6.247-10.664-10.125-17.989-10.125-3.59 0-7.105.945-10.171 2.73-9.645 5.637-12.567 17.535-6.77 27.649 2.89 5.042 5.887 10.14 8.777 15.082 1.641 2.816 3.282 5.62 4.91 8.44a320102.59 320102.59 0 0 1 47.192 81.173l-18.148-3.895c-6.336-1.363-11.567-2.265-16.563-2.265-2.965 0-5.68.336-8.266 1.004-5.695 1.48-10.011 5.359-11.87 10.648-1.848 5.23-.93 10.898 2.527 15.547 2.976 4.023 7.132 7.48 13.468 11.215 6.102 3.617 12.743 6.293 19.758 9.125 3.574 1.437 7.25 2.933 10.883 4.562 8.371 3.762 16.652 7.89 24.64 11.871 11.364 5.68 23.102 11.535 34.973 16.215 9.125 3.586 21.168 7.727 33.403 7.727 3.382 0 6.742-.32 9.965-.93 21.62-4.152 39.562-16.664 53.335-37.148 12.235-18.192 13.282-37.633 3.125-57.797-10.52-20.907-23.015-41.407-35.101-61.211"/><g clip-path="url(#b)"><path fill="#238cd2" d="M206.719 477.902c-34.942 0-63.36-28.418-63.36-63.347 0-34.942 28.418-63.36 63.36-63.36 34.941 0 63.363 28.418 63.363 63.36 0 34.93-28.422 63.347-63.363 63.347Zm0-144.039c-44.489 0-80.68 36.207-80.68 80.692 0 44.476 36.191 80.668 80.68 80.668 44.488 0 80.68-36.192 80.68-80.668 0-44.485-36.192-80.692-80.68-80.692"/></g><path fill="#00c853" d="m396.89 446.418 49.688-49.688c1.453-1.453 1.453-3.808 0-5.246l-8.805-8.82c-1.453-1.437-3.804-1.437-5.246 0l-38.27 38.27-16.823-16.793a3.697 3.697 0 0 0-5.243 0l-8.777 8.773a3.735 3.735 0 0 0-.016 5.262l28.23 28.242a3.72 3.72 0 0 0 5.263 0"/><g clip-path="url(#c)"><path fill="#00c853" d="M377.941 471.828c-21.43-10.156-36.304-32.008-36.304-57.285 0-34.93 28.433-63.348 63.36-63.348 34.925 0 63.358 28.418 63.358 63.348 0 18.902-8.308 35.887-21.472 47.492.015.031.031.074.043.102 2.992 4.972 5.855 9.84 8.879 15.023 18.203-14.789 29.87-37.367 29.87-62.617 0-44.488-36.19-80.68-80.679-80.68-44.488 0-80.68 36.192-80.68 80.68 0 35.129 22.563 65.09 53.961 76.129-1.73-6.305-1.8-12.785-.336-18.844"/></g><g clip-path="url(#d)"><path fill="#238cd2" d="M599.133 477.773c-31.57-2.02-57.07-27.52-59.09-59.09-2.441-38.183 29.176-69.796 67.371-67.355 31.57 2.02 57.07 27.516 59.09 59.074 2.441 38.196-29.176 69.809-67.371 67.371Zm4.14-143.91c-44.488 0-80.68 36.207-80.68 80.692 0 44.476 36.192 80.668 80.68 80.668 44.489 0 80.68-36.192 80.68-80.668 0-44.485-36.191-80.692-80.68-80.692"/></g><path fill="#238cd2" d="m241.777 386.719-7.218-7.235a3.53 3.53 0 0 0-5.016 0l-22.824 22.825-22.824-22.825a3.525 3.525 0 0 0-5.012 0l-7.235 7.235a3.546 3.546 0 0 0 0 5.011l22.825 22.825-22.825 22.812a3.546 3.546 0 0 0 0 5.012l7.235 7.234a3.546 3.546 0 0 0 5.012 0l22.824-22.808 22.824 22.808a3.55 3.55 0 0 0 5.016 0l7.218-7.234a3.525 3.525 0 0 0 0-5.012l-22.808-22.812 22.808-22.825a3.525 3.525 0 0 0 0-5.011m396.571 0-7.239-7.235a3.525 3.525 0 0 0-5.011 0l-22.825 22.825-22.812-22.825a3.544 3.544 0 0 0-5.027 0l-7.22 7.235a3.525 3.525 0 0 0 0 5.011l22.81 22.825-22.81 22.812a3.525 3.525 0 0 0 0 5.012l7.22 7.234a3.565 3.565 0 0 0 5.027 0l22.812-22.808 22.825 22.808a3.546 3.546 0 0 0 5.011 0l7.239-7.234a3.553 3.553 0 0 0 0-5.012l-22.828-22.812 22.828-22.825a3.553 3.553 0 0 0 0-5.011"/></svg>